<mxfile host="app.diagrams.net" modified="2020-10-31T07:13:24.254Z" agent="5.0 (Macintosh; Intel Mac OS X 10_15_7) AppleWebKit/537.36 (KHTML, like Gecko) Chrome/86.0.4240.111 Safari/537.36" etag="WJ2scJvw4_ZgGGNEjciQ" version="13.8.8" type="github">
  <diagram name="Page-1" id="e7e014a7-5840-1c2e-5031-d8a46d1fe8dd">
    <mxGraphModel dx="898" dy="591" grid="1" gridSize="10" guides="1" tooltips="1" connect="1" arrows="1" fold="1" page="1" pageScale="1" pageWidth="1169" pageHeight="826" background="#ffffff" math="0" shadow="0">
      <root>
        <mxCell id="0" />
        <mxCell id="1" parent="0" />
        <mxCell id="FLPjmydlvcA6dQwD7uRy-41" value="" style="shape=umlLifeline;participant=umlActor;perimeter=lifelinePerimeter;whiteSpace=wrap;html=1;container=1;collapsible=0;recursiveResize=0;verticalAlign=top;spacingTop=36;outlineConnect=0;" parent="1" vertex="1">
          <mxGeometry x="100" y="80" width="20" height="480" as="geometry" />
        </mxCell>
        <mxCell id="FLPjmydlvcA6dQwD7uRy-61" value="" style="html=1;points=[];perimeter=orthogonalPerimeter;" parent="FLPjmydlvcA6dQwD7uRy-41" vertex="1">
          <mxGeometry x="5" y="60" width="10" height="360" as="geometry" />
        </mxCell>
        <mxCell id="FLPjmydlvcA6dQwD7uRy-42" value="" style="shape=umlLifeline;participant=umlActor;perimeter=lifelinePerimeter;whiteSpace=wrap;html=1;container=1;collapsible=0;recursiveResize=0;verticalAlign=top;spacingTop=36;outlineConnect=0;" parent="1" vertex="1">
          <mxGeometry x="730" y="80" width="20" height="490" as="geometry" />
        </mxCell>
        <mxCell id="FLPjmydlvcA6dQwD7uRy-63" value="" style="html=1;points=[];perimeter=orthogonalPerimeter;" parent="FLPjmydlvcA6dQwD7uRy-42" vertex="1">
          <mxGeometry x="5" y="60" width="10" height="100" as="geometry" />
        </mxCell>
        <mxCell id="FLPjmydlvcA6dQwD7uRy-68" value="" style="html=1;points=[];perimeter=orthogonalPerimeter;" parent="FLPjmydlvcA6dQwD7uRy-42" vertex="1">
          <mxGeometry x="5" y="230" width="10" height="60" as="geometry" />
        </mxCell>
        <mxCell id="FLPjmydlvcA6dQwD7uRy-69" value="" style="html=1;points=[];perimeter=orthogonalPerimeter;" parent="FLPjmydlvcA6dQwD7uRy-42" vertex="1">
          <mxGeometry x="5" y="350" width="10" height="60" as="geometry" />
        </mxCell>
        <mxCell id="FLPjmydlvcA6dQwD7uRy-43" value="Server" style="shape=umlLifeline;perimeter=lifelinePerimeter;whiteSpace=wrap;html=1;container=1;collapsible=0;recursiveResize=0;outlineConnect=0;" parent="1" vertex="1">
          <mxGeometry x="380" y="80" width="100" height="470" as="geometry" />
        </mxCell>
        <mxCell id="FLPjmydlvcA6dQwD7uRy-59" value="" style="html=1;points=[];perimeter=orthogonalPerimeter;" parent="FLPjmydlvcA6dQwD7uRy-43" vertex="1">
          <mxGeometry x="45" y="60" width="10" height="390" as="geometry" />
        </mxCell>
        <mxCell id="FLPjmydlvcA6dQwD7uRy-44" value="房主" style="text;html=1;align=center;verticalAlign=middle;resizable=0;points=[];autosize=1;" parent="1" vertex="1">
          <mxGeometry x="90" y="50" width="40" height="20" as="geometry" />
        </mxCell>
        <mxCell id="FLPjmydlvcA6dQwD7uRy-45" value="队员" style="text;html=1;align=center;verticalAlign=middle;resizable=0;points=[];autosize=1;" parent="1" vertex="1">
          <mxGeometry x="720" y="50" width="40" height="20" as="geometry" />
        </mxCell>
        <mxCell id="FLPjmydlvcA6dQwD7uRy-46" value="游戏玩法确认： api/room/setRule" style="html=1;verticalAlign=bottom;endArrow=block;exitX=1.1;exitY=0.086;exitDx=0;exitDy=0;exitPerimeter=0;" parent="1" source="FLPjmydlvcA6dQwD7uRy-61" target="FLPjmydlvcA6dQwD7uRy-43" edge="1">
          <mxGeometry width="80" relative="1" as="geometry">
            <mxPoint x="130" y="160" as="sourcePoint" />
            <mxPoint x="420" y="158" as="targetPoint" />
            <Array as="points">
              <mxPoint x="260" y="170" />
            </Array>
          </mxGeometry>
        </mxCell>
        <mxCell id="FLPjmydlvcA6dQwD7uRy-51" value="ACTION&lt;br&gt;kh_start_game_apply" style="html=1;verticalAlign=bottom;endArrow=open;dashed=1;endSize=8;strokeColor=#000000;exitX=-0.1;exitY=0.29;exitDx=0;exitDy=0;exitPerimeter=0;entryX=1;entryY=0.314;entryDx=0;entryDy=0;entryPerimeter=0;" parent="1" source="FLPjmydlvcA6dQwD7uRy-59" target="FLPjmydlvcA6dQwD7uRy-61" edge="1">
          <mxGeometry relative="1" as="geometry">
            <mxPoint x="310" y="270" as="sourcePoint" />
            <mxPoint x="140" y="260" as="targetPoint" />
            <Array as="points" />
          </mxGeometry>
        </mxCell>
        <mxCell id="FLPjmydlvcA6dQwD7uRy-56" value="通知队员房间准备好，可以启动游戏&lt;br&gt;ACTION&lt;br&gt;kh_start_game_member" style="html=1;verticalAlign=bottom;endArrow=block;strokeColor=#000000;entryX=0;entryY=0.333;entryDx=0;entryDy=0;entryPerimeter=0;exitX=0.9;exitY=0.795;exitDx=0;exitDy=0;exitPerimeter=0;" parent="1" source="FLPjmydlvcA6dQwD7uRy-59" target="FLPjmydlvcA6dQwD7uRy-69" edge="1">
          <mxGeometry width="80" relative="1" as="geometry">
            <mxPoint x="430" y="450" as="sourcePoint" />
            <mxPoint x="510" y="450" as="targetPoint" />
          </mxGeometry>
        </mxCell>
        <mxCell id="FLPjmydlvcA6dQwD7uRy-64" value="ACTION&lt;br&gt;kh_start_game_invite" style="html=1;verticalAlign=bottom;endArrow=block;strokeColor=#000000;exitX=1.3;exitY=0.097;exitDx=0;exitDy=0;exitPerimeter=0;" parent="1" source="FLPjmydlvcA6dQwD7uRy-59" target="FLPjmydlvcA6dQwD7uRy-63" edge="1">
          <mxGeometry width="80" relative="1" as="geometry">
            <mxPoint x="660" y="179.5" as="sourcePoint" />
            <mxPoint x="740" y="179.5" as="targetPoint" />
          </mxGeometry>
        </mxCell>
        <mxCell id="FLPjmydlvcA6dQwD7uRy-66" value="同意或拒绝&lt;br&gt;api/room/apply" style="html=1;verticalAlign=bottom;endArrow=open;dashed=1;endSize=8;strokeColor=#000000;exitX=0;exitY=0.82;exitDx=0;exitDy=0;exitPerimeter=0;entryX=0.9;entryY=0.213;entryDx=0;entryDy=0;entryPerimeter=0;" parent="1" source="FLPjmydlvcA6dQwD7uRy-63" target="FLPjmydlvcA6dQwD7uRy-59" edge="1">
          <mxGeometry relative="1" as="geometry">
            <mxPoint x="610" y="230" as="sourcePoint" />
            <mxPoint x="440" y="213" as="targetPoint" />
            <Array as="points" />
          </mxGeometry>
        </mxCell>
        <mxCell id="FLPjmydlvcA6dQwD7uRy-53" value="启动游戏&lt;br&gt;api/room/startGame" style="html=1;verticalAlign=bottom;endArrow=block;strokeColor=#000000;exitX=0.9;exitY=0.447;exitDx=0;exitDy=0;exitPerimeter=0;" parent="1" source="FLPjmydlvcA6dQwD7uRy-61" edge="1">
          <mxGeometry width="80" relative="1" as="geometry">
            <mxPoint x="110" y="315" as="sourcePoint" />
            <mxPoint x="423" y="299" as="targetPoint" />
          </mxGeometry>
        </mxCell>
        <mxCell id="FLPjmydlvcA6dQwD7uRy-54" value="通知队员房主启动游戏中&lt;br&gt;ACTION&lt;br&gt;kh_start_game_begin" style="html=1;verticalAlign=bottom;endArrow=block;strokeColor=#000000;entryX=0;entryY=0.383;entryDx=0;entryDy=0;entryPerimeter=0;" parent="1" source="FLPjmydlvcA6dQwD7uRy-59" target="FLPjmydlvcA6dQwD7uRy-68" edge="1">
          <mxGeometry width="80" relative="1" as="geometry">
            <mxPoint x="660" y="340" as="sourcePoint" />
            <mxPoint x="740" y="340" as="targetPoint" />
          </mxGeometry>
        </mxCell>
        <mxCell id="FLPjmydlvcA6dQwD7uRy-71" value="通知房主房间准备好，可以启动游戏&lt;br&gt;ACTION&lt;br&gt;kh_start_game_owner" style="html=1;verticalAlign=bottom;endArrow=open;endSize=8;strokeColor=#000000;exitX=0;exitY=0.723;exitDx=0;exitDy=0;exitPerimeter=0;" parent="1" source="FLPjmydlvcA6dQwD7uRy-59" target="FLPjmydlvcA6dQwD7uRy-61" edge="1">
          <mxGeometry relative="1" as="geometry">
            <mxPoint x="330" y="420" as="sourcePoint" />
            <mxPoint x="250" y="420" as="targetPoint" />
          </mxGeometry>
        </mxCell>
      </root>
    </mxGraphModel>
  </diagram>
</mxfile>
